<?xml version="1.0" encoding="UTF-8"?>
<svg id="_Слой_1" data-name="Слой 1" xmlns="http://www.w3.org/2000/svg" viewBox="0 0 246.62 74.48">
  <defs>
    <style>
      .cls-1 {
        fill: #1d1d1b;
      }
    </style>
  </defs>
  <g>
    <g>
      <path class="cls-1" d="M65.23,74.35v-6.26h.91v2.7h3.14v-2.7h.92v6.26h-.92v-2.7h-3.14v2.7h-.91Z"/>
      <path class="cls-1" d="M72.28,74.35l2.04-6.26h1.31l2.04,6.26h-.95l-1.88-5.71h.23l-1.86,5.71h-.95ZM73.34,72.94v-.85h3.28v.85h-3.28Z"/>
      <path class="cls-1" d="M80.81,74.35v-5.4h-2.09v-.86h5.09v.86h-2.09v5.4h-.91Z"/>
      <path class="cls-1" d="M86.71,74.35l.79-1.62-2.19-4.64h1.02l1.64,3.67,1.68-3.67h.97l-2.94,6.26h-.98Z"/>
      <path class="cls-1" d="M92.62,74.35v-6.26h2.54c.06,0,.14,0,.23,0,.09,0,.18.01.26.03.35.05.64.17.87.36.23.18.41.41.52.69.12.28.17.59.17.92s-.06.65-.17.92-.29.51-.52.69c-.23.18-.53.3-.87.36-.08.01-.17.02-.26.03-.09,0-.17,0-.22,0h-1.63v2.25h-.91ZM93.53,71.25h1.59c.06,0,.12,0,.19,0,.07,0,.14-.02.2-.03.19-.04.34-.12.45-.24.11-.12.19-.25.24-.41.05-.15.07-.31.07-.46s-.02-.31-.07-.46c-.05-.15-.13-.29-.24-.4-.11-.12-.26-.2-.45-.24-.06-.02-.13-.03-.2-.03-.07,0-.14,0-.19,0h-1.59v2.29Z"/>
      <path class="cls-1" d="M98.61,74.35l2.04-6.26h1.31l2.04,6.26h-.95l-1.88-5.71h.23l-1.86,5.71h-.95ZM99.67,72.94v-.85h3.28v.85h-3.28Z"/>
      <path class="cls-1" d="M105.95,74.35v-.78c.15.02.27,0,.37-.02.1-.03.18-.09.25-.18.07-.09.12-.22.17-.4.05-.17.1-.4.14-.67.06-.35.12-.71.16-1.08.04-.37.08-.74.11-1.11.03-.37.06-.72.08-1.06.02-.34.04-.66.05-.95h4.12v6.26h-.91v-5.4h-2.35c-.01.23-.03.49-.05.78-.02.29-.05.59-.07.91-.03.32-.06.65-.11,1-.04.34-.1.69-.16,1.03-.05.3-.12.56-.19.8-.08.24-.18.44-.31.59-.13.16-.29.26-.5.32-.21.05-.47.05-.79-.02Z"/>
      <path class="cls-1" d="M113.92,74.35v-6.26h.91v2.25h1.63c.06,0,.13,0,.22,0,.09,0,.18.01.25.03.35.05.64.17.87.36.23.18.41.41.53.69.12.28.18.59.18.92s-.06.64-.17.92-.29.51-.52.69c-.23.18-.53.3-.88.36-.08.01-.16.02-.25.03-.09,0-.17,0-.23,0h-2.54ZM114.83,73.5h1.59c.05,0,.12,0,.19,0,.07,0,.14-.02.2-.03.19-.04.34-.12.45-.24.11-.12.19-.25.24-.4.05-.15.08-.31.08-.46s-.02-.31-.08-.46c-.05-.15-.13-.29-.24-.41-.11-.12-.26-.2-.45-.24-.06-.02-.13-.03-.2-.03-.07,0-.13,0-.19,0h-1.59v2.29Z"/>
      <path class="cls-1" d="M120.77,74.35v-6.26h.91v2.7h3.14v-2.7h.92v6.26h-.92v-2.7h-3.14v2.7h-.91Z"/>
      <path class="cls-1" d="M127.83,74.35l2.04-6.26h1.31l2.04,6.26h-.95l-1.88-5.71h.23l-1.86,5.71h-.95ZM128.89,72.94v-.85h3.28v.85h-3.28Z"/>
      <path class="cls-1" d="M135.05,74.35l1.36-2.78.92.23-1.24,2.55h-1.04ZM138.85,74.35v-2.25h-1.78l-.37-.04c-.51-.09-.89-.32-1.15-.68-.25-.36-.38-.79-.38-1.29,0-.34.06-.64.18-.92.12-.28.29-.51.52-.69.23-.18.53-.3.87-.36.08-.01.17-.02.26-.03.09,0,.17,0,.23,0h2.54v6.26h-.91ZM138.85,68.95h-1.59c-.06,0-.12,0-.19,0-.07,0-.14.02-.2.03-.19.04-.34.12-.45.24-.11.12-.19.25-.24.4-.05.15-.07.31-.07.46s.02.31.07.46c.05.15.13.29.24.41.11.12.26.2.45.24.06.01.13.03.2.03.07,0,.14,0,.19,0h1.59v-2.29Z"/>
      <path class="cls-1" d="M145.34,74.35v-6.26h.91v2.92l2.63-2.92h1.13l-2.78,3.05,2.98,3.2h-1.17l-2.8-2.99v2.99h-.91Z"/>
      <path class="cls-1" d="M154.43,74.48c-.63,0-1.16-.14-1.6-.41-.44-.27-.78-.66-1.01-1.15-.23-.49-.35-1.06-.35-1.7s.12-1.21.35-1.7c.23-.49.57-.87,1.01-1.15.44-.27.98-.41,1.6-.41s1.16.14,1.6.41c.44.27.78.66,1.01,1.15.23.49.35,1.06.35,1.7s-.12,1.21-.35,1.7c-.23.49-.57.87-1.01,1.15-.44.27-.98.41-1.6.41ZM154.43,73.62c.44,0,.81-.09,1.11-.29.29-.2.52-.48.66-.84.15-.36.22-.78.22-1.26s-.07-.9-.22-1.25c-.15-.36-.37-.64-.66-.84-.29-.2-.66-.3-1.11-.3-.44,0-.82.09-1.11.29-.29.2-.52.48-.67.84-.15.36-.22.78-.23,1.26,0,.48.07.9.22,1.25.15.36.37.64.67.84.3.2.67.3,1.11.3Z"/>
      <path class="cls-1" d="M162.2,74.48c-.63,0-1.16-.14-1.6-.41-.44-.27-.78-.66-1.01-1.15-.23-.49-.35-1.06-.35-1.7s.12-1.21.35-1.7c.23-.49.57-.87,1.01-1.15.44-.27.98-.41,1.6-.41.72,0,1.32.18,1.8.55.47.36.81.86.99,1.47l-.92.25c-.12-.44-.34-.78-.65-1.03-.31-.25-.72-.37-1.21-.37-.44,0-.82.1-1.11.3-.3.2-.52.48-.67.84-.15.36-.22.78-.22,1.26,0,.48.07.9.22,1.26.15.36.37.64.67.84.3.2.67.3,1.11.3.5,0,.9-.13,1.21-.38.31-.25.53-.59.65-1.03l.92.25c-.19.62-.52,1.11-.99,1.47-.48.36-1.07.55-1.8.55Z"/>
      <path class="cls-1" d="M167.25,74.35v-6.26h.82l2.28,4.71,2.26-4.71h.83v6.25h-.86v-4.28l-2.03,4.28h-.41l-2.03-4.28v4.28h-.86Z"/>
      <path class="cls-1" d="M175.97,74.35v-6.26h4.01v.86h-3.1v1.76h2.58v.86h-2.58v1.93h3.1v.86h-4.01Z"/>
      <path class="cls-1" d="M183.9,74.35v-5.4h-2.09v-.86h5.09v.86h-2.09v5.4h-.91Z"/>
      <path class="cls-1" d="M192.91,74.35v-4.65l-3.09,4.65h-.92v-6.26h.92v4.65l3.09-4.65h.92v6.26h-.92Z"/>
      <path class="cls-1" d="M196.36,74.35v-6.26h.91v2.92l2.63-2.92h1.13l-2.78,3.05,2.98,3.2h-1.17l-2.8-2.99v2.99h-.91Z"/>
      <path class="cls-1" d="M202.72,74.35l2.04-6.26h1.31l2.04,6.26h-.95l-1.88-5.71h.23l-1.86,5.71h-.95ZM203.78,72.94v-.85h3.28v.85h-3.28Z"/>
      <path class="cls-1" d="M212.82,74.35l2.04-6.26h1.31l2.04,6.26h-.95l-1.88-5.71h.23l-1.86,5.71h-.95ZM213.88,72.94v-.85h3.28v.85h-3.28Z"/>
      <path class="cls-1" d="M220.16,74.35v-.78c.15.02.27,0,.37-.02.1-.03.18-.09.25-.18.07-.09.12-.22.17-.4.05-.17.1-.4.14-.67.06-.35.12-.71.16-1.08.04-.37.08-.74.11-1.11.03-.37.06-.72.08-1.06.02-.34.04-.66.05-.95h4.12v6.26h-.91v-5.4h-2.35c-.02.23-.03.49-.05.78-.02.29-.05.59-.07.91-.03.32-.07.65-.11,1-.04.34-.1.69-.16,1.03-.05.3-.12.56-.19.8-.08.24-.18.44-.31.59-.13.16-.3.26-.5.32-.21.05-.47.05-.79-.02Z"/>
      <path class="cls-1" d="M229.69,74.35v-5.4h-2.09v-.86h5.09v.86h-2.09v5.4h-.91Z"/>
      <path class="cls-1" d="M234.08,74.35l2.04-6.26h1.31l2.04,6.26h-.95l-1.88-5.71h.23l-1.86,5.71h-.95ZM235.14,72.94v-.85h3.28v.85h-3.28Z"/>
      <path class="cls-1" d="M241.3,74.35l1.36-2.78.92.23-1.24,2.55h-1.04ZM245.1,74.35v-2.25h-1.78l-.37-.04c-.51-.09-.9-.32-1.15-.68-.26-.36-.38-.79-.38-1.29,0-.34.06-.64.17-.92.12-.28.29-.51.53-.69.23-.18.52-.3.87-.36.08-.01.17-.02.26-.03.09,0,.17,0,.23,0h2.54v6.26h-.91ZM245.1,68.95h-1.59c-.06,0-.12,0-.19,0-.07,0-.14.02-.2.03-.19.04-.33.12-.45.24-.11.12-.2.25-.24.4-.05.15-.07.31-.07.46s.02.31.07.46c.05.15.13.29.24.41.11.12.26.2.45.24.06.01.13.03.2.03.07,0,.14,0,.19,0h1.59v-2.29Z"/>
    </g>
    <g>
      <path class="cls-1" d="M96.02,54.41v-.68s-.11-.04-.11-.04c-.09-.03-2.13-.85-2.13-3.71v-24.22c0-3.71-1.49-9.93-11.45-9.93-7,0-12.25,2.52-14.19,3.6-.05.03-.09.05-.1.06l-.17.09.72,1.17.1.21.16-.16c.05-.03,6.41-3.45,13.1-3.45s7.32,3.46,7.32,6.48v2.03c-1.97.5-24.64,6.54-24.64,19.25,0,5.98,4.54,9.69,11.84,9.69,4.44,0,10.03-2.01,12.8-7.58v7.2h6.76ZM89.26,27.44v12.78c0,8.13-5.88,12.52-11.41,12.52-5.24,0-8.24-2.7-8.24-7.41,0-13.01,17.53-17.41,19.65-17.89Z"/>
      <path class="cls-1" d="M160.99,47.93c-.06.19-1.58,4.72-7.08,4.72-4.26,0-6.6-2.48-6.6-6.97v-27.89h12.39v-1.57h-12.39V5.23l-4.67,2.97v8.01h-3.87v1.57h3.87v27.66c0,6.01,3.46,9.32,9.73,9.32,4.16,0,6.6-1.74,7.92-3.19,1.43-1.58,1.87-3.15,1.88-3.21l.05-.18-1.15-.46-.07.21Z"/>
      <path class="cls-1" d="M175.49,53.59c-.09-.03-2.11-.84-2.11-3.67V0h-6.84v.74s.13.05.13.05c.09.03,2.11.84,2.11,3.67v45.47c0,2.82-2.02,3.63-2.11,3.67l-.13.05v.74h9.09v-.74s-.13-.05-.13-.05Z"/>
      <path class="cls-1" d="M243.81,17.64c-1.05-.66-2.18-1.15-3.4-1.47-1.21-.32-2.47-.41-3.76-.41-2.29.01-4.38.48-6.33,1.71-1.83,1.16-3.15,2.75-3.99,4.75v-6.01h-6.83v.74s.14.05.14.05c.09.03,2.1.77,2.1,3.59v29.33c0,2.82-2.02,3.63-2.11,3.67l-.13.05v.74h9.09v-.74s-.13-.05-.13-.05c-.09-.03-2.11-.84-2.11-3.67v-17.85h0v-1.71c.02-.3.04-.6.08-.89.16-1.37.48-2.84.96-4.39.48-1.55,1.09-2.88,1.82-3.98.73-1.1,1.75-2.01,3.05-2.74,1.3-.73,2.8-1.1,4.49-1.1,1.78,0,3.1.57,3.95,1.72.71.97,1.13,2.16,1.24,3.59.02.26.03.53.03.81l.49-.35,4.18-2.95c-.82-.96-1.76-1.77-2.81-2.44Z"/>
      <path class="cls-1" d="M215.16,44.55c-.03.08-2.79,8.12-12.88,8.12-5.03,0-10.77-2.75-14.34-8.61,6.87-2.23,21.31-8.11,21.31-18.24,0-5.98-4.56-9.7-11.9-9.7-3.19,0-6.97,1.04-9.89,3.67-.84.65-1.62,1.39-2.34,2.2-3.1,3.52-4.8,8.27-4.8,13.37s1.71,9.86,4.8,13.4c3.49,3.99,8.46,6.1,14.37,6.1,14.55,0,17.21-10.09,17.23-10.19l.06-.26h-1.58l-.05.14ZM185.35,37.85c-.44-1.69-.74-3.46-.83-5.24-.18-3.68.54-7.37,2.88-10.36,2.22-2.64,5.44-4.02,8.54-4.02,5.23,0,8.23,2.68,8.23,7.36,0,10.49-11.51,15.36-17.01,17.08-.32.1-1.7-4.41-1.81-4.82Z"/>
      <path class="cls-1" d="M134.5,53.11c-.5-.53-1.1-1.48-1.1-3.02v-25.07c0-5.76-3.92-9.2-10.5-9.2-4.69,0-10.59,2.07-13.29,7.85v-7.46h-6.67v.54l.06.02s.56.2,1.11.75c.5.51,1.1,1.44,1.1,2.98v29.58c0,1.54-.6,2.49-1.1,3.02-.55.57-1.1.79-1.11.79l-.06.02v.54h8.94v-.54l-.06-.02s-.56-.22-1.11-.79c-.5-.53-1.1-1.48-1.1-3.02v-19.7c0-8.29,6.04-12.76,11.73-12.76,4.68,0,7.58,2.74,7.58,7.15v25.3c0,2.94-2.11,3.8-2.14,3.81l-.06.02v.54h8.94v-.54l-.06-.02s-.56-.22-1.11-.79Z"/>
    </g>
  </g>
  <path class="cls-1" d="M48.12,49.54c-1.72-2.1-5.1-2.48-7.18-4.23,3.83-8.48,1.94-17.03-3.2-24.47-.57-1.12-.53-2.35,0-3.47.54-1.13,1.42-2.07,2.3-2.96.29-.29.58-.6.88-.88.42-.39.79-.66,1.23-.9.42-.23.72-.59.89-1.03.38-.99-.24-2.11-1.02-2.76-.27-.23-.61-.37-.96-.35-.71.03-1.4.47-2.07.69-3.06,1.27-6.63,2.56-9.97,1.97,1.11-1.19,2.1-2.69,2.52-4.32.03-.12.03-.26,0-.38-.02-.11-.07-.21-.14-.31-.06-.09-.14-.16-.24-.22-.09-.06-.19-.1-.29-.12-.1-.02-.21-.03-.31,0-.1.02-.2.05-.29.11-.09.06-.17.14-.23.24-.07.12-.13.28-.12.42,0,.16,0,.32,0,.48-.01.14-.04.29-.08.42-.04.12-.08.24-.14.36-.05.1-.11.19-.19.27-.06.07-.13.13-.22.17-.07.04-.15.06-.23.05-.08,0-.16-.03-.23-.08-.09-.06-.16-.14-.22-.23-.08-.12-.14-.25-.19-.39-.05-.15-.09-.29-.12-.45-.04-.19-.03-.4,0-.59.03-.19.09-.37.17-.53.08-.16.18-.31.3-.44.06-.07.13-.14.2-.2.11-.1.21-.18.27-.31.12-.25.11-.56-.03-.8-.07-.11-.17-.21-.29-.26-.18-.07-.4-.03-.57.04-.25.09-.5.22-.72.38-.18.13-.33.3-.46.48-.11.17-.19.37-.24.57-.05.21-.07.42-.07.63,0,.23.02.45.06.67.03.23.08.46.14.69.05.23.11.46.17.7.06.22.11.45.16.68.04.21.08.42.1.64.02.19.02.38,0,.57-.02.17-.07.34-.15.49-.04.07-.09.15-.15.21-.03.03-.06.06-.09.09-.03.02-.07.07-.1.09,0,0-.02,0-.03,0-.23.07-.48.11-.72.05-.18-.04-.34-.14-.46-.29-.13-.16-.21-.36-.26-.56-.07-.24-.1-.49-.12-.74-.02-.28-.03-.57-.04-.85,0-.3-.01-.59-.02-.89-.01-.28-.03-.57-.07-.85-.04-.25-.09-.49-.18-.73-.08-.2-.19-.39-.35-.53-.16-.14-.37-.23-.58-.26-.18-.02-.35-.01-.51.1-.19.13-.31.37-.29.61.03.31.2.6.34.87.07.12.15.25.19.38.14.42.16.88.2,1.32.03.37.06.75.06,1.12,0,.26,0,.52-.02.78,0,.04-.03.46-.05.47-.09,0-.18,0-.27,0-.39-.03-.76-.16-1.12-.3-.35-.14-.72-.25-1.05-.44-.24-.13-.45-.32-.6-.55-.21-.31-.3-.68-.35-1.05-.06-.4-.07-.81-.12-1.21-.02-.21-.04-.44-.18-.61-.15-.18-.4-.3-.63-.24-.33.09-.54.43-.65.73-.07.18-.12.38-.12.57,0,.27.06.54.12.81.05.23.11.45.2.66.18.42.44.8.76,1.13.09.09.19.18.29.27.05.04.1.08.16.12.03.02.13.12.16.11-1.89.31-4.18-.33-5-2.29-.09-.68.53-1.25.96-1.69.43-.44,1.02-.92,1.18-1.55.07-.29,0-.57-.16-.81-.29-.42-.81-.47-1.16-.07-.24.27-.37.63-.51.96-.13.3-.27.66-.53.87-.07.05-.13.11-.21.15-.15.1-.35.19-.54.13-.16-.05-.26-.2-.32-.35-.09-.21-.12-.44-.14-.67-.02-.27-.02-.55-.01-.82.01-.27.04-.54.07-.81.02-.12.03-.23.05-.35.04-.23.13-.46.07-.69-.05-.2-.16-.38-.3-.54-.21-.23-.49-.41-.79-.48-.21-.05-.45-.03-.61.13-.39.42.05.89.13,1.32.1.5-.03,1.02-.1,1.52-.04.24-.06.48-.06.73,0,.12.01.24.03.36.02.11.07.22.09.33.26,1.62,1.05,3.28,2.43,4.24,1.19.64,1.45,1.45-.16.8-.38-.17-.76-.36-1.11-.57-.86-.52-1.67-1.18-2.28-1.98-.55-.73-.95-1.62-.88-2.55.03-.48.19-.95.43-1.37.07-.12.14-.23.22-.34.08-.11.18-.2.23-.33.1-.26.07-.55-.05-.8-.3-.61-1.02-.36-1.45-.06-.29.21-.54.48-.73.78-.09.15-.17.31-.22.48-.01.04-.13.47-.08.49-1.44-.44-.62-2.77-.94-4.22-.09-.42-.37-.79-.77-.91-.19-.06-.39-.05-.55.13-.34.38-.28,1.1-.3,1.5-.03.63,0,1.25.08,1.87.06.42.13.84.24,1.26.12.45.28.88.47,1.3.42.9.96,1.74,1.57,2.51.76.94,1.63,1.71,2.56,2.49,1.24,1.03,2.72,1.72,4.29,2.07,1.56.35,3.19.37,4.77.18.68-.08,1.34-.21,2-.34.12-.02.24-.03.35.01.11.04.2.16.18.27-.01.09-.08.16-.16.21-.08.04-.17.06-.26.08-.85.16-1.71.31-2.55.55-.9.25-1.78.57-2.64.92-1.71.69-3.53,1.11-5.38,1.23-1.37.09-3.89.28-4.51-1.34-.24-.41-.04-.95-.41-1.3-.71-.61-1.11.25-1.39.71-.76-.78-.23-1.75-.07-2.67.08-.47-.07-.96-.44-1.26-.86-.71-1.4.87-1.28,2.01.2,1.84-1.91-.75-2.02-1.48-.44-.97.69-3.13-.48-3.42-.4-.1-.83.05-1.07.38-.29.4-.36.96-.35,1.45.19,6.86,8.79,9.45,14.53,8.3,4.54-.89,8.8-3.77,13.5-3.7-2.09,1.71-3.21,4.7-3.48,7.37-.02.19.06.4.24.49.99.5,3.35-1.92,3.79-2.56.69,1,1.08,2.17,1.23,3.38.23,1.95-.13,3.92-.62,5.8-.12.47-.26.94-.4,1.41-.12.38-.21.83-.4,1.18-.38.7-1.2,1.04-1.87,1.38-.86.44-1.78.77-2.69,1.08-1.85.61-3.76,1.08-5.55,1.87-2.06-.2-4.18-.11-6.18.43-1.31.35-2.58.91-3.7,1.68-.54.37-1,.83-1.42,1.32-.42.48-.82.99-1.36,1.34-.71.44-1.53.65-2.35.77-.81.12-1.63.11-2.44.21-.2.02-.5.04-.67.18-.08.06-.21.34-.06.41,1.54.7,2.5,2.4,4.26,2.7.77,1.84,1.69,3.77,2.29,5.7.1.38.13.77.1,1.16-.08.84-.47,1.61-.96,2.3-.52.73-1.14,1.37-1.75,2.02-.29.31-.58.63-.85.96-.32.38-.36.9-.44,1.37-.1.54-.2,1.08-.29,1.62-.2,1.1-.39,2.19-.62,3.28-.23,1.09-.48,2.18-.8,3.25-.32,1.06-.69,2.11-1.16,3.11.25,1.46,1.58,2.7,1.21,4.37.94.88,3.42,1.26,4.27.2-.25-1.52-2.13-1.93-2.5-3.39-.52-3.63.65-7.45,2.18-10.72,1.17-1.73,3.32-2.3,4.74-3.8-.08,3.93,3.17,7.43,3.05,11.57-.26,3.93,1.87,2.61,1.41,5.96,1.41.39,3.06.24,4.55.15.64-1.49-1.32-2.39-2.11-3.39-1.7-2.54-2.06-6.04-2.13-9.01,1.05-4,4.11-7.01,5.14-11.02.06-.72.97-.21,1.39-.15,3.53.63,7.1,1.03,10.63,1.6-.26,5.4,2.25,10.43,1.78,15.85.09,1.1-.2,2.32.7,3.11.59.83.21,2.21,1.26,2.72.32.41,3.42,1.39,3.2.38-.47-.58-.88-1.2-1.23-1.86-.48-.93-.83-1.92-1.07-2.93-.24-1.03-.31-2.06-.43-3.1-.27-2.42-.35-4.8-.02-7.22.16-1.2.4-2.39.7-3.57.15-.59.31-1.18.48-1.77.09-.29.17-.59.27-.88.08-.27.22-.56.27-.84.14-.82,1.19-.86,1.84-.86,1.19,0,2.39.09,3.58.13.43.02.88.03,1.3.15.19.05.8.31.7.61-.29.88-.69,1.72-1.16,2.52-.57.99-1.24,1.91-1.93,2.82-.65.84-1.49,1.55-2.11,2.41-.5.68-.88,1.44-1.46,2.07-.26.29-.52.52-.68.89-.15.33-.22.69-.21,1.05.01.55.22,1.07.47,1.56.13.24.28.48.4.72.06.12.1.23.19.34.23.25.49.25.74.02.34-.31.54-.78.72-1.19.25-.57.47-1.15.67-1.74.18-.5.35-1.01.54-1.51.12-.33.29-.62.43-.93,1.46-3.14,7.7-7.57,6.36-10.92Z"/>
</svg>