<?xml version="1.0" encoding="UTF-8"?>
<svg id="_Слой_1" data-name="Слой_1" xmlns="http://www.w3.org/2000/svg" version="1.1" viewBox="0 0 341.22 157.3">
  <!-- Generator: Adobe Illustrator 30.2.1, SVG Export Plug-In . SVG Version: 2.1.1 Build 1)  -->
  <defs>
    <style>
      .st0 {
        fill-rule: evenodd;
      }

      .st0, .st1 {
        fill: #50492d;
      }
    </style>
  </defs>
  <g>
    <path class="st0" d="M259.89,9.72c37.63,0,68.14,30.51,68.14,68.14s-30.51,68.14-68.14,68.14-68.13-30.51-68.13-68.14S222.26,9.72,259.89,9.72M259.52,3.15c41.26-.2,74.88,33.08,75.08,74.35.2,41.26-33.08,74.88-74.34,75.08-41.26.2-74.88-33.08-75.08-74.35-.2-41.26,33.08-74.87,74.34-75.08Z"/>
    <g>
      <path class="st0" d="M259.64,34.02c23.92-.12,43.41,19.18,43.53,43.11.12,23.92-19.18,43.41-43.1,43.53-23.92.12-43.41-19.18-43.53-43.1-.12-23.92,19.18-43.41,43.11-43.53M259.63,32.92c24.53-.12,44.52,19.67,44.64,44.21.12,24.53-19.67,44.52-44.21,44.64-24.53.12-44.52-19.67-44.64-44.21-.12-24.53,19.67-44.52,44.21-44.64Z"/>
      <path class="st1" d="M283.67,68.86l.03,7.09h2.74c1.98-.02,3.29-.16,3.96-.43.66-.26,1.18-.67,1.56-1.24.37-.56.56-1.2.56-1.94,0-.91-.27-1.66-.8-2.24-.54-.59-1.2-.96-2.02-1.1-.6-.11-1.8-.16-3.6-.15h-2.41ZM278.73,89.56l-.12-24.89,8.06-.04c3.05-.01,5.04.1,5.97.34,1.43.37,2.62,1.17,3.59,2.42.97,1.25,1.46,2.86,1.47,4.84,0,1.53-.27,2.81-.81,3.86-.55,1.05-1.25,1.87-2.1,2.47-.85.6-1.72.99-2.6,1.19-1.2.24-2.93.37-5.2.38l-3.27.02.05,9.38-5.04.03ZM249.71,89.71l-.12-24.89,7.55-.04,4.55,16.96,4.33-17,7.57-.04.12,24.89-4.66.02-.11-19.59-4.81,19.62-4.84.02-4.98-19.57.08,19.59-4.66.02ZM234.27,80.64l-.02-4.21,10.81-.05.05,9.93c-1.04,1.03-2.56,1.94-4.56,2.73-1.99.79-4.01,1.18-6.06,1.19-2.6.01-4.87-.52-6.81-1.61-1.93-1.09-3.4-2.65-4.38-4.68-.98-2.03-1.48-4.25-1.49-6.64-.01-2.59.52-4.9,1.59-6.93,1.08-2.02,2.66-3.58,4.75-4.67,1.6-.84,3.57-1.26,5.95-1.27,3.09-.02,5.51.62,7.25,1.91,1.74,1.29,2.86,3.08,3.37,5.37l-5,.96c-.35-1.22-1.02-2.18-1.99-2.89-.97-.7-2.17-1.05-3.62-1.04-2.19.01-3.93.71-5.22,2.12-1.29,1.4-1.92,3.47-1.91,6.21.01,2.96.68,5.18,2,6.65,1.32,1.47,3.04,2.2,5.17,2.19,1.05,0,2.1-.22,3.15-.64,1.06-.42,1.96-.92,2.72-1.52l-.02-3.16-5.74.03Z"/>
      <path class="st1" d="M209.68,72.43l.27-1.63c.14-.82.11-1.53-.07-2.14-.18-.62-.46-1.14-.83-1.58-.38-.44-.82-.79-1.34-1.04-.51-.26-1.04-.43-1.58-.52-.59-.1-1.19-.09-1.77.02-.58.11-1.12.32-1.6.63-.49.31-.9.73-1.24,1.25-.34.52-.57,1.15-.69,1.89l-.27,1.63,9.12,1.5ZM210.11,73.89l-10.43-1.72.56-3.43c.14-.82.39-1.56.77-2.2.37-.64.83-1.17,1.38-1.59.54-.41,1.16-.71,1.84-.88.68-.17,1.39-.19,2.12-.07.76.13,1.44.38,2.04.77.6.39,1.08.86,1.47,1.43.39.57.66,1.2.81,1.9.15.7.16,1.42.04,2.16l-.59,3.61ZM204.84,86.88c-.7.03-1.35-.06-1.95-.25-.6-.19-1.11-.47-1.55-.83-.44-.36-.78-.8-1.04-1.3-.25-.5-.4-1.06-.42-1.66-.02-.59.07-1.16.29-1.7.22-.54.53-1.01.94-1.43.41-.41.9-.75,1.48-1,.58-.25,1.22-.39,1.93-.42.7-.03,1.36.06,1.95.27.6.21,1.12.51,1.55.89.44.38.79.83,1.04,1.35.26.52.4,1.08.42,1.67.02.6-.07,1.17-.29,1.69-.22.52-.53.98-.94,1.37-.41.39-.9.71-1.48.95-.58.24-1.22.37-1.93.4ZM204.89,88.36c.57-.02,1.16-.15,1.79-.4.63-.24,1.21-.6,1.73-1.09.52-.48.95-1.09,1.28-1.82.33-.73.48-1.59.44-2.59-.02-.67-.13-1.28-.32-1.82-.18-.54-.43-1.03-.73-1.45-.3-.43-.64-.79-1.02-1.1-.38-.31-.78-.56-1.19-.75-.42-.19-.83-.33-1.25-.42-.42-.09-.81-.13-1.19-.11-.56.02-1.16.16-1.79.42-.63.25-1.21.64-1.73,1.14-.52.5-.95,1.13-1.28,1.89-.33.75-.47,1.63-.44,2.64.04,1,.24,1.84.63,2.55.38.7.85,1.27,1.4,1.72.55.44,1.16.76,1.81.95.66.2,1.26.28,1.84.26ZM208.88,100.95c-.66.23-1.31.34-1.94.33-.63-.01-1.2-.13-1.73-.35-.52-.22-.98-.53-1.37-.94-.39-.41-.68-.9-.88-1.47-.19-.56-.27-1.13-.22-1.71.05-.58.21-1.12.48-1.64.27-.52.64-.98,1.13-1.39.48-.41,1.05-.73,1.72-.96.67-.23,1.32-.33,1.95-.31.63.03,1.21.16,1.74.4.53.24.99.57,1.39.99.4.42.69.91.89,1.47.19.57.27,1.14.21,1.7-.05.57-.22,1.09-.5,1.59-.27.49-.66.94-1.14,1.34-.49.4-1.06.71-1.73.94ZM209.37,102.35c.54-.18,1.07-.48,1.6-.9.53-.41.98-.93,1.35-1.54.36-.61.59-1.32.7-2.11.1-.79,0-1.66-.33-2.6-.22-.64-.5-1.19-.84-1.65-.33-.47-.71-.86-1.12-1.18-.41-.32-.84-.57-1.29-.76-.45-.18-.91-.31-1.36-.37-.45-.06-.89-.08-1.32-.04-.43.04-.81.11-1.17.24-.53.18-1.06.49-1.59.92-.53.43-.97.96-1.33,1.59-.36.63-.58,1.36-.68,2.18-.1.82.02,1.7.35,2.65.33.94.77,1.69,1.34,2.26.56.56,1.18.97,1.84,1.23.66.26,1.33.39,2.01.38.68,0,1.29-.1,1.83-.29ZM211.21,104.67l1.61,2.5.52-.33-.92-1.43,2.3-1.48c.49.22.93.5,1.3.82.38.32.73.74,1.05,1.25.43.67.71,1.32.83,1.95.12.63.11,1.23-.04,1.79-.15.56-.42,1.09-.8,1.57-.39.48-.88.92-1.47,1.3-.58.37-1.17.65-1.76.81-.59.16-1.17.2-1.72.11-.56-.08-1.08-.29-1.56-.62-.48-.33-.92-.79-1.31-1.39-.26-.4-.45-.8-.59-1.2-.14-.4-.23-.78-.27-1.14-.04-.36-.03-.68.03-.96.06-.29.16-.51.31-.68l-.59-.91c-.14.2-.26.46-.38.79-.11.33-.17.72-.17,1.16,0,.45.08.94.23,1.49.16.55.44,1.14.84,1.77.46.72,1,1.32,1.59,1.79.59.47,1.22.81,1.89,1,.66.2,1.35.24,2.07.13.71-.11,1.42-.39,2.12-.84.6-.39,1.12-.86,1.56-1.41.44-.55.76-1.17.95-1.85.19-.68.22-1.41.1-2.19-.13-.78-.46-1.6-1.01-2.45-.41-.63-.84-1.15-1.3-1.55-.46-.4-.87-.71-1.25-.92l.52-.34-.7-1.08-3.96,2.55Z"/>
      <path class="st1" d="M313.63,88.65l.38-2.95-.61-.08-.22,1.68-2.71-.35c-.23-.49-.39-.98-.46-1.47-.08-.49-.08-1.03,0-1.63.1-.79.31-1.46.63-2.02.32-.56.71-1.01,1.19-1.34.48-.33,1.02-.56,1.63-.68.61-.12,1.26-.13,1.96-.04.69.09,1.31.27,1.87.53.55.26,1.02.6,1.39,1.03.37.42.64.92.8,1.48.16.56.19,1.2.1,1.91-.06.47-.17.9-.32,1.3-.15.4-.33.75-.53,1.05-.2.3-.42.53-.65.71-.23.18-.45.28-.68.32l-.14,1.08c.23-.06.5-.18.8-.36.3-.18.6-.44.89-.78.29-.34.55-.77.78-1.29.24-.52.4-1.15.5-1.89.11-.85.09-1.65-.06-2.39-.15-.75-.41-1.41-.79-1.98-.38-.58-.88-1.06-1.5-1.43-.62-.38-1.34-.62-2.17-.73-.71-.09-1.41-.07-2.11.07-.69.14-1.33.41-1.92.81-.58.4-1.08.94-1.49,1.61-.41.68-.68,1.52-.81,2.52-.1.75-.1,1.43-.01,2.03.09.6.21,1.11.36,1.51l-.61-.08-.16,1.27,4.67.61ZM320.48,72.9l-8.02.96v-.06s7.2-9.3,7.2-9.3v-.08s-10.69,1.28-10.69,1.28l.08.69,8.02-.96v.06s-7.2,9.3-7.2,9.3v.08s10.69-1.28,10.69-1.28l-.08-.69ZM317.17,57.1l-10.05,3.26.42,1.31,10.06-3.26-.43-1.31ZM311.48,46.47l.74,1.34c.19.33.3.66.36.99.05.32.04.63-.02.92-.06.29-.19.55-.37.78-.18.24-.41.43-.7.58-.24.13-.5.22-.8.26-.29.04-.59.02-.9-.06-.3-.07-.59-.21-.86-.42-.27-.2-.51-.48-.7-.83l-.76-1.37,3.99-2.21ZM311.4,44.95l-9.25,5.11.67,1.2,4.09-2.26.32.58c.14.25.23.47.28.66.05.19.05.38.02.57-.03.19-.1.39-.21.6-.1.21-.24.46-.39.76l-.97,1.9c-.13.24-.24.47-.34.69-.1.22-.16.44-.2.65-.03.21-.04.44,0,.66.03.22.12.47.27.74.11.19.2.35.29.46.09.11.2.21.34.3l.49-.27s-.07-.08-.1-.12c-.03-.04-.05-.08-.08-.13-.1-.18-.17-.36-.19-.53-.02-.17-.02-.34.01-.52.03-.18.09-.37.17-.56.08-.19.18-.4.3-.63.33-.66.61-1.19.82-1.56.21-.38.37-.68.48-.89.11-.22.18-.39.22-.5.04-.12.06-.24.05-.38v-.17s.05-.03.05-.03c.26.41.55.72.88.94.33.21.66.35,1,.41.35.06.68.06,1.01,0s.62-.17.89-.32c.24-.13.47-.32.7-.57.23-.25.4-.55.52-.91.12-.36.15-.78.1-1.25-.05-.48-.24-1.01-.57-1.6l-1.66-3ZM303.12,34.3l-4.99,4.16c-.32.26-.64.59-.97.97-.33.38-.56.83-.7,1.33-.13.51-.12,1.08.04,1.72.16.64.57,1.36,1.23,2.15.41.49.86.87,1.33,1.12.47.25.95.4,1.44.43.49.03.96-.03,1.43-.2.47-.17.91-.42,1.32-.77l5.29-4.41-.43-.51-4.91,4.09c-.17.14-.34.28-.52.42-.18.14-.37.26-.58.37-.21.11-.43.19-.67.25-.24.06-.51.08-.81.07-.53-.03-1-.17-1.4-.43-.4-.26-.76-.58-1.07-.95-.27-.33-.46-.66-.57-.99-.11-.34-.16-.7-.14-1.09,0-.31.05-.57.12-.79.08-.22.17-.42.28-.59.11-.17.24-.33.39-.46.15-.14.3-.27.45-.4l5.3-4.42-.88-1.06ZM290.61,37.6l5.75-7.86,3.26,2.39.49-.67-7.64-5.6-.49.67,3.27,2.39-5.76,7.86,1.11.81ZM286.16,32.02c-1.34.45-2.65.37-3.93-.22-.71-.33-1.28-.74-1.72-1.25-.43-.5-.74-1.04-.91-1.62-.18-.58-.23-1.19-.17-1.81.06-.63.23-1.23.5-1.82.29-.62.65-1.14,1.09-1.57.43-.42.92-.74,1.45-.95.53-.21,1.09-.31,1.68-.29.58.01,1.16.16,1.74.42.39.18.73.39,1.01.63.28.24.52.5.7.76.18.26.31.52.38.79.07.26.09.5.07.72l1.02.47c0-.38-.04-.74-.13-1.11-.09-.36-.25-.72-.48-1.06-.23-.34-.54-.67-.91-.97-.38-.31-.84-.59-1.39-.84-.8-.37-1.58-.59-2.33-.66-.76-.08-1.47,0-2.13.2-.66.21-1.26.55-1.79,1.03-.53.48-.97,1.09-1.31,1.83-.3.64-.48,1.31-.56,2.01-.08.7,0,1.39.2,2.06.21.67.58,1.3,1.12,1.9.53.6,1.26,1.11,2.18,1.54.58.27,1.13.46,1.64.56.51.1.98.16,1.39.15.42,0,.78-.04,1.1-.12s.56-.16.74-.24l-.24-.56ZM272.82,24.9l-4.48-1.06,3.29-4.46.06.02,1.13,5.5ZM272.97,25.63l.69,3.36,1.42.34-2.36-11.42-.74-.18-6.78,9.26.67.16,2.01-2.72,5.07,1.2ZM257.25,16.55l.18,10.57,1.37-.02-.08-5.26,4.68-.08v-.7s-4.69.08-4.69.08l-.06-3.79,5.45-.09v-.83s-6.84.11-6.84.11ZM243.88,18.56l1.36,6.35c.09.41.22.84.41,1.31.19.47.47.88.85,1.24.39.36.9.61,1.54.77.64.16,1.46.13,2.47-.09.63-.14,1.17-.35,1.61-.65.44-.3.79-.66,1.05-1.08.26-.41.42-.87.49-1.36.07-.49.05-1-.06-1.52l-1.44-6.73-.65.14,1.34,6.24c.05.22.09.44.13.66.04.22.06.45.06.68,0,.23-.03.47-.09.71-.06.24-.16.49-.31.74-.27.46-.61.81-1.03,1.04-.42.23-.86.4-1.34.5-.41.09-.79.11-1.14.05-.35-.06-.69-.18-1.03-.38-.27-.15-.49-.31-.64-.48-.16-.17-.29-.35-.39-.53-.1-.18-.18-.37-.23-.56-.05-.19-.1-.39-.14-.59l-1.45-6.75-1.34.29ZM237.89,20.41l3.52,7.27-.06.03-11.14-3.79-.07.03,4.68,9.68.62-.3-3.52-7.27.06-.03,11.14,3.79.07-.03-4.68-9.68-.63.3ZM227.8,33.75l-3.55,2.94-1.57-5.31.05-.04,5.07,2.41ZM228.48,34.08l3.1,1.47,1.13-.93-10.53-5.01-.58.48,3.29,11,.54-.44-.96-3.25,4.02-3.32ZM208.18,45.05l-.61.83,8.51,6.27.39-.53-6.94-5.12.04-.05,9.86,1.46.16-.22-4.21-9.03.04-.05,6.89,5.08.82-1.11-8.51-6.27-.62.84,4.4,9.33-.04.05-10.18-1.48Z"/>
      <path class="st1" d="M232.7,132.52l5.28-9.16-5.91-3.41-.41.72,4.72,2.73-2.21,3.83-4.06-2.34-.35.6,4.06,2.34-1.89,3.29-4.72-2.73-.42.72,5.91,3.41ZM239.65,126.44c1.28-.59,2.59-.67,3.93-.22.74.25,1.36.6,1.85,1.05.49.45.85.95,1.09,1.51.24.56.36,1.16.37,1.78,0,.63-.09,1.25-.29,1.86-.22.65-.52,1.21-.9,1.68-.38.47-.83.84-1.33,1.11-.5.26-1.05.42-1.63.47-.58.05-1.18-.03-1.78-.23-.41-.14-.77-.31-1.07-.52-.31-.21-.57-.43-.78-.67-.21-.24-.37-.49-.47-.74-.1-.25-.15-.49-.15-.71l-1.06-.35c.04.37.12.74.25,1.09.13.35.33.68.6,1,.27.31.61.6,1.02.86.41.26.9.49,1.47.69.83.28,1.63.41,2.39.4.76-.01,1.46-.16,2.1-.44.64-.28,1.19-.69,1.67-1.23.48-.53.84-1.19,1.1-1.97.22-.67.33-1.36.33-2.06,0-.71-.15-1.38-.43-2.02-.29-.64-.73-1.23-1.32-1.76-.6-.53-1.38-.96-2.34-1.28-.61-.21-1.18-.33-1.7-.37-.52-.05-.99-.04-1.4,0-.42.05-.78.13-1.07.24-.3.11-.54.22-.71.32l.3.53ZM252.95,138.73l1.33-10.49-1.36-.17-1.33,10.49,1.36.17ZM261.02,128.63l.2,9.74-4.05.08.02.83,9.47-.19-.02-.83-4.05.08-.2-9.74-1.37.03ZM268.05,130.37c.74-1.2,1.8-1.98,3.16-2.34.76-.2,1.47-.25,2.12-.14.65.11,1.23.33,1.74.67.5.33.94.76,1.29,1.29.35.52.61,1.09.77,1.72.18.66.23,1.3.17,1.9-.06.6-.23,1.16-.51,1.66-.27.49-.64.93-1.11,1.29-.46.36-1,.62-1.61.78-.42.11-.81.16-1.18.16-.37,0-.72-.05-1.02-.14-.31-.09-.58-.21-.8-.36-.23-.15-.39-.33-.52-.51l-1.08.28c.23.29.5.55.81.77.3.22.65.39,1.05.5.4.11.84.17,1.32.16.49,0,1.03-.08,1.61-.24.85-.23,1.59-.55,2.22-.98.63-.43,1.13-.93,1.51-1.52.38-.58.62-1.23.73-1.94.11-.71.05-1.46-.16-2.25-.18-.68-.47-1.32-.86-1.91-.39-.59-.88-1.08-1.47-1.46-.59-.38-1.28-.63-2.07-.75-.79-.12-1.68-.05-2.66.21-.62.16-1.17.37-1.62.62-.46.25-.85.5-1.17.77-.32.27-.58.53-.77.79-.19.26-.33.48-.42.66l.54.28ZM282.91,127.56l4.15-2,.26,5.53-.06.03-4.35-3.55ZM282.32,127.09l-2.66-2.17-1.32.64,9.03,7.38.68-.33-.58-11.46-.62.3.16,3.38-4.69,2.27ZM300.15,123.58l-1.18.98c-.3.25-.6.43-.91.54-.31.11-.61.16-.91.16-.3-.01-.58-.08-.84-.21-.26-.13-.5-.33-.7-.57-.18-.21-.31-.46-.4-.73-.09-.28-.13-.58-.12-.89.02-.31.1-.62.25-.92.15-.3.37-.59.69-.85l1.2-1,2.92,3.5ZM301.63,123.21l-6.77-8.12-1.05.88,2.99,3.58-.51.43c-.21.18-.42.31-.59.39-.18.08-.36.13-.55.13-.19,0-.4-.03-.63-.09-.22-.06-.5-.15-.82-.24l-2.05-.59c-.26-.08-.51-.15-.74-.21-.23-.06-.46-.08-.68-.08-.22,0-.44.05-.65.12-.21.08-.44.21-.67.4-.17.14-.3.26-.4.37-.09.1-.17.23-.23.39l.36.43s.07-.08.1-.12c.03-.04.07-.07.11-.1.16-.14.33-.23.49-.29.16-.05.34-.08.52-.09.18,0,.38.02.58.06.21.04.43.11.67.18.71.21,1.28.37,1.69.51.41.14.73.24.97.3.23.07.41.1.54.12.12.02.25,0,.38-.03l.17-.04.04.05c-.35.33-.6.68-.75,1.04-.15.36-.22.71-.22,1.06,0,.35.07.68.2.98.13.31.29.58.48.81.17.21.4.4.69.58.29.18.62.3.99.34.37.05.79,0,1.25-.14.46-.14.95-.43,1.47-.86l2.63-2.19ZM307.8,115.35l-.99,1.24c-.26.33-.56.58-.88.73-.32.16-.64.24-.97.25-.33.01-.64-.03-.95-.14-.3-.11-.57-.26-.81-.45-.23-.18-.43-.4-.6-.66-.17-.26-.28-.55-.34-.86-.06-.32-.04-.65.04-.99.08-.35.27-.7.55-1.05.2-.24.39-.46.57-.65.18-.19.37-.34.57-.45l3.81,3.05ZM303.51,111.92c-.22.16-.44.35-.66.55-.22.21-.45.45-.68.74-.38.48-.66.96-.82,1.43-.16.47-.23.93-.19,1.37.03.43.15.83.35,1.2.2.37.48.69.82.96.33.26.7.46,1.08.59.39.13.79.17,1.19.13.4-.05.81-.18,1.21-.42.4-.23.79-.58,1.15-1.03l2.21-2.76-8.26-6.6-.86,1.07,3.44,2.76Z"/>
    </g>
  </g>
  <g>
    <path class="st0" d="M81.08,36.81c23.7-.12,43.01,19.01,43.13,42.71.12,23.7-19,43.01-42.71,43.13-23.7.12-43.01-19.01-43.13-42.71-.11-23.7,19.01-43.02,42.71-43.13M81.07,35.71c24.31-.12,44.11,19.49,44.23,43.8.12,24.31-19.49,44.11-43.8,44.23-24.31.12-44.11-19.49-44.23-43.8-.12-24.31,19.49-44.11,43.8-44.23Z"/>
    <path class="st0" d="M81.16,38.69c22.68-.11,41.15,18.18,41.26,40.87.11,22.68-18.18,41.16-40.87,41.27-22.68.11-41.15-18.18-41.26-40.87-.11-22.68,18.18-41.16,40.86-41.27M81.15,37.65c23.26-.11,42.2,18.65,42.32,41.91.11,23.26-18.65,42.2-41.91,42.32-23.26.11-42.21-18.65-42.32-41.91-.11-23.26,18.65-42.2,41.91-42.32Z"/>
    <path class="st0" d="M80.46,10.15c37.63,0,68.14,30.51,68.14,68.13s-30.51,68.14-68.14,68.14S12.33,115.92,12.33,78.29,42.83,10.15,80.46,10.15M80.1,3.58c41.26-.2,74.88,33.08,75.08,74.35.2,41.26-33.09,74.88-74.35,75.08-41.26.2-74.88-33.08-75.08-74.35C5.55,37.39,38.84,3.78,80.1,3.58Z"/>
    <g>
      <path class="st1" d="M63.17,82.88c0,1.63.07,1.63.07,3.25,0,1.01-.29,1.95-.8,2.78-.47.87-1.16,1.63-1.99,2.1-.83.5-1.8.72-2.82.72-1.3,0-1.3-.11-2.6-.11-.9,0-1.77-.14-2.56-.5-.8-.4-1.59-.83-2.17-1.55-.5-.69-.76-1.55-.9-2.39-.11-.54.25-1.08.83-1.08.8,0,.8.07,1.59.07.39,0,.83.18.94.58.11.33.11.72.36,1.01.44.48,1.16.69,1.8.69,1.34,0,1.34-.14,2.71-.14,1.23,0,2.28-.91,2.28-2.17,0-1.59.1-1.59.1-3.14,0-2.46-3.5-2.27-5.16-2.27-1.01,0-2.02-.15-2.85-.62-.84-.47-1.48-1.3-1.95-2.13-.51-.83-.83-1.77-.83-2.78v-2.71c0-1.34-.08-1.34-.08-2.67,0-1.02.26-2.02.76-2.86.48-.87,1.3-1.52,2.13-1.99.84-.51,1.81-.94,2.82-.94,1.38,0,1.38.14,2.78.14,1.01,0,1.95.33,2.78.8.83.51,1.55,1.19,2.02,2.06.51.83.8,1.77.8,2.78,0,1.63-.07,1.63-.07,3.29s.03,1.63.03,3.25.22,1.63.22,3.25-.25,1.63-.25,3.29ZM59.84,69.8c0-1.23-.98-2.35-2.2-2.35-1.41,0-1.41.07-2.78.07-1.23,0-2.27,1.05-2.27,2.28,0,1.34.11,1.34.11,2.67v2.71c0,1.23.94,2.27,2.16,2.27,1.38,0,1.38-.18,2.78-.18,1.23,0,2.24-.87,2.24-2.09,0-.62.11-.62.11-1.23.03-2.06-.15-2.06-.15-4.16Z"/>
      <path class="st1" d="M80.95,82.88c0,1.63.07,1.63.07,3.25,0,1.01-.29,1.95-.8,2.78-.47.87-1.16,1.63-1.99,2.1-.83.5-1.8.72-2.82.72-1.3,0-1.3-.11-2.6-.11-.9,0-1.77-.14-2.56-.5-.8-.4-1.59-.83-2.17-1.55-.5-.69-.76-1.55-.9-2.39-.11-.54.25-1.08.83-1.08.8,0,.8.07,1.59.07.39,0,.83.18.94.58.11.33.11.72.36,1.01.44.48,1.16.69,1.81.69,1.34,0,1.34-.14,2.71-.14,1.23,0,2.28-.91,2.28-2.17,0-1.59.1-1.59.1-3.14,0-2.46-3.5-2.27-5.16-2.27-1.01,0-2.02-.15-2.85-.62-.83-.47-1.48-1.3-1.95-2.13-.51-.83-.83-1.77-.83-2.78v-2.71c0-1.34-.08-1.34-.08-2.67,0-1.02.26-2.02.76-2.86.48-.87,1.3-1.52,2.13-1.99.84-.51,1.81-.94,2.82-.94,1.37,0,1.37.14,2.78.14,1.02,0,1.95.33,2.78.8.83.51,1.55,1.19,2.02,2.06.51.83.8,1.77.8,2.78,0,1.63-.07,1.63-.07,3.29s.03,1.63.03,3.25.22,1.63.22,3.25-.25,1.63-.25,3.29ZM77.62,69.8c0-1.23-.98-2.35-2.2-2.35-1.41,0-1.41.07-2.78.07-1.23,0-2.27,1.05-2.27,2.28,0,1.34.11,1.34.11,2.67v2.71c0,1.23.94,2.27,2.16,2.27,1.37,0,1.37-.18,2.78-.18,1.23,0,2.24-.87,2.24-2.09,0-.62.11-.62.11-1.23.03-2.06-.15-2.06-.15-4.16Z"/>
      <path class="st1" d="M94.92,79.95c-.84.48-1.77.73-2.78.73-.87,0-.87-.04-1.73-.04-1.02,0-1.99-.18-2.82-.65-.87-.51-1.63-1.16-2.13-2.02-.47-.83-.69-1.84-.69-2.85,0-1.34-.04-1.34-.04-2.68s-.03-1.37-.03-2.7.03-1.34.03-2.68c0-1.01.33-1.98.83-2.78.47-.87,1.23-1.52,2.06-2.02.83-.47,1.77-.87,2.79-.87h1.73c1.01,0,1.99.26,2.81.76.87.47,1.66,1.19,2.17,2.02.47.84.76,1.88.76,2.89,0,1.34-.11,1.34-.11,2.68s.07,1.37.07,2.7-.03,1.34-.03,2.68c0,1.01-.44,1.91-.91,2.74-.51.87-1.12,1.59-1.99,2.09ZM94.42,67.05c0-1.23-1.05-2.34-2.27-2.34-.87,0-.87.14-1.73.14-1.23,0-2.24.98-2.24,2.2,0,1.34.03,1.34.03,2.68s.08,1.37.08,2.7-.04,1.34-.04,2.68c0,1.23.94,2.24,2.17,2.24.87,0,.87-.07,1.73-.07,1.23,0,2.16-.94,2.16-2.16,0-1.34-.04-1.34,0-2.68q.04-1.37.04-2.7c0-1.34.07-1.34.07-2.68ZM103.45,75.58c-.58,1.37-.65,1.34-1.27,2.71-.58,1.37-.65,1.34-1.23,2.71-.62,1.34-.69,1.34-1.27,2.67-.61,1.37-.51,1.41-1.12,2.78-.58,1.37-.55,1.37-1.16,2.74-.58,1.37-.73,1.3-1.34,2.68-.18.47-.69.79-1.16.58-.69-.33-.66-.44-1.34-.76-.48-.19-.69-.69-.51-1.16q.61-1.34,1.23-2.71c.62-1.37.54-1.37,1.16-2.75.58-1.37.65-1.34,1.27-2.71.58-1.37.65-1.34,1.27-2.67q.58-1.37,1.19-2.74c.62-1.37.55-1.37,1.12-2.75.61-1.37.54-1.37,1.16-2.74.61-1.37.54-1.41,1.12-2.75.62-1.37.69-1.34,1.3-2.71q.58-1.37,1.19-2.71c.22-.47.73-.65,1.19-.47.69.33.76.18,1.45.51.47.18.65.83.43,1.3-.61,1.37-.5,1.41-1.08,2.79-.62,1.37-.8,1.26-1.41,2.63-.61,1.37-.54,1.37-1.16,2.75-.58,1.37-.43,1.41-1.05,2.78ZM116.53,85.44c0,1.34-.18,1.34-.18,2.68,0,1.05-.11,2.02-.58,2.85-.5.87-1.3,1.52-2.13,2.02-.83.47-1.81.69-2.81.69-.87,0-.87-.04-1.73-.04-1.02,0-1.99-.14-2.82-.61-.87-.51-1.66-1.16-2.17-2.02-.47-.84-.58-1.84-.58-2.89,0-1.34-.07-1.34-.07-2.68s-.07-1.34-.07-2.67.14-1.37.14-2.71c0-1.01.29-1.95.76-2.78.5-.83,1.16-1.55,2.02-2.06.83-.48,1.77-.73,2.78-.73.87,0,.87.04,1.73.04,1.01,0,1.99.18,2.81.65.87.51,1.59,1.19,2.1,2.06.5.83.61,1.8.61,2.81,0,1.34.08,1.34.08,2.71s.1,1.34.1,2.67ZM113.21,88.12c0-1.34-.04-1.34-.07-2.68-.04-1.34.03-1.34.03-2.67s-.11-1.37-.11-2.71c0-1.23-1.01-2.13-2.24-2.13-.87,0-.87-.18-1.73-.18-1.23,0-2.2,1.09-2.2,2.31,0,1.34.07,1.34.07,2.71s-.15,1.34-.15,2.67-.03,1.34-.03,2.68c0,1.27,1.08,2.27,2.31,2.27.87,0,.87.04,1.73.04,1.23,0,2.38-1.05,2.38-2.31Z"/>
    </g>
    <path class="st1" d="M49.92,120.56l-2.43-1.92c-1.05-.83-1.86-1.27-2.44-1.34-.58-.06-1.11.19-1.61.77-.27.35-.42.76-.43,1.24,0,.47.14.9.44,1.26.3.37.85.86,1.65,1.5l2.23,1.76,2.59-3.27ZM46.14,125.34l-1.96-1.55c-.78-.62-1.36-1-1.71-1.15-.36-.15-.75-.19-1.18-.12-.43.06-.78.27-1.06.62-.46.58-.57,1.13-.35,1.68.23.55.83,1.21,1.81,1.98l2.02,1.6,2.42-3.06ZM44.36,131.4l-4.26-3.37c-1.04-.82-1.75-1.53-2.13-2.11-.37-.58-.56-1.24-.55-2,0-.76.26-1.46.78-2.11.41-.52.88-.89,1.4-1.11.52-.22,1.1-.28,1.74-.2-.38-.57-.55-1.23-.52-1.97.03-.73.3-1.42.81-2.06.88-.98,1.86-1.45,2.92-1.42,1.06.03,2.24.55,3.51,1.56l4.91,3.88-8.61,10.88ZM55.87,129.99c.92,0,2.23.2,3.91.62.96.23,1.65.34,2.09.33.44-.01.82-.13,1.14-.36.33-.23.57-.53.72-.91.23-.57.2-1.15-.09-1.71-.29-.56-.86-1.02-1.71-1.36-.84-.34-1.67-.45-2.47-.35-.8.1-1.49.41-2.05.92-.44.4-.84,1.07-1.22,2.03l-.33.79ZM57.63,125.08c1.09-.37,2.07-.54,2.93-.52.86.01,1.73.2,2.59.54,1.42.57,2.37,1.35,2.86,2.34.49.99.52,2.02.09,3.1-.25.63-.63,1.15-1.12,1.55-.5.4-1.04.67-1.63.8-.59.13-1.21.16-1.86.09-.48-.06-1.17-.21-2.08-.45-1.85-.5-3.26-.77-4.21-.81-.13.3-.21.48-.24.56-.35.88-.39,1.59-.13,2.12.36.71,1.1,1.29,2.2,1.73,1.03.41,1.87.54,2.5.37.64-.16,1.25-.66,1.86-1.48l2.02,1.15c-.56.84-1.18,1.45-1.85,1.83-.67.38-1.49.56-2.46.53-.96-.03-2.01-.27-3.12-.72-1.1-.44-1.95-.93-2.54-1.47-.59-.54-.97-1.06-1.13-1.58-.16-.52-.2-1.11-.09-1.76.08-.4.31-1.08.7-2.05l1.16-2.9c.81-2.02,1.27-3.32,1.4-3.9.13-.58.15-1.17.09-1.77l2.29.92c.04.55-.04,1.14-.22,1.78ZM78.38,142.23l-11.21-1.05.18-1.94,4.43.41,1.11-11.87,2.35.22-1.1,11.87,4.43.42-.18,1.94ZM83.6,133.32l-2.33.03c.01-1.6.46-2.92,1.36-3.96.89-1.04,2.09-1.68,3.59-1.91,1.87-.28,3.48.09,4.81,1.15,1.33,1.05,2.17,2.71,2.52,4.99.23,1.48.18,2.81-.14,3.99-.32,1.18-.94,2.13-1.86,2.83-.92.71-1.97,1.15-3.15,1.33-1.49.23-2.77.04-3.83-.57-1.07-.61-1.84-1.59-2.32-2.93l2.2-.69c.36.89.84,1.52,1.47,1.9.62.38,1.31.51,2.09.39,1.17-.18,2.07-.75,2.67-1.7.6-.95.77-2.33.49-4.14-.28-1.84-.84-3.12-1.68-3.85-.84-.72-1.83-1-2.96-.83-.92.14-1.64.54-2.16,1.19-.53.65-.79,1.57-.77,2.75ZM107.38,127.94c-.78-1.59-1.71-2.62-2.79-3.06-1.09-.45-2.16-.42-3.23.1-1.05.51-1.73,1.34-2.05,2.48-.31,1.14-.07,2.52.73,4.15.75,1.54,1.67,2.53,2.76,2.98,1.09.45,2.16.42,3.2-.09,1.07-.52,1.75-1.34,2.07-2.47.31-1.13.08-2.49-.69-4.08ZM109.55,126.89c1.12,2.3,1.31,4.32.57,6.06-.62,1.44-1.71,2.55-3.26,3.3-1.71.84-3.39.96-5.03.37-1.63-.58-2.93-1.87-3.9-3.84-.78-1.6-1.15-2.98-1.12-4.13.03-1.15.39-2.21,1.06-3.17.67-.96,1.56-1.7,2.65-2.23,1.75-.85,3.44-.99,5.06-.4,1.62.59,2.95,1.93,3.97,4.03ZM113,122.08l-1.9,1.35c-.9-1.33-1.28-2.67-1.13-4.03.14-1.36.77-2.57,1.88-3.61,1.38-1.3,2.92-1.9,4.61-1.79,1.69.11,3.33,1.01,4.91,2.69,1.03,1.09,1.74,2.21,2.14,3.37.41,1.16.43,2.29.07,3.39-.35,1.11-.97,2.07-1.84,2.89-1.1,1.03-2.26,1.6-3.48,1.7-1.22.1-2.41-.26-3.57-1.1l1.42-1.82c.8.53,1.56.77,2.29.74.72-.04,1.37-.33,1.95-.86.86-.82,1.28-1.79,1.24-2.91-.04-1.13-.69-2.36-1.94-3.69-1.28-1.36-2.46-2.1-3.56-2.22-1.1-.12-2.07.21-2.91,1-.68.64-1.05,1.37-1.11,2.21-.07.83.24,1.74.92,2.7ZM147.37,77.59l.09,1.61c-1.11-.07-1.97-.43-2.6-1.06-.63-.64-.97-1.51-1.03-2.62-.06-1.12.18-2.02.73-2.72.55-.7,1.37-1.15,2.47-1.33l.09,1.61c-.59.15-1.03.42-1.31.8-.28.38-.4.88-.37,1.49.04.71.21,1.24.52,1.58.3.35.77.57,1.4.66ZM141.8,69.73l.13,2.36-10.57.57,10.92,5.97.14,2.53-13.85.75-.13-2.36,10.5-.57-10.85-5.97-.14-2.54,13.85-.75ZM123.82,53.94l.97,2.28c.58,1.37,1.17,2.28,1.76,2.72.59.44,1.24.51,1.95.21.55-.23.95-.66,1.2-1.28.25-.62.05-1.67-.58-3.15l-1.09-2.56-4.2,1.79ZM133.89,47.09l.93,2.17-4.99,2.13,1.17,2.74c.76,1.79,1,3.31.72,4.57-.28,1.27-1.03,2.15-2.25,2.67-1.06.45-2.14.44-3.25-.04-1.1-.48-2.03-1.61-2.78-3.38l-2.31-5.41,12.76-5.45ZM139.05,59.19l.93,2.17-12.76,5.45-.93-2.17,12.76-5.45ZM120.96,31.93l1.62,1.72-4.21,3.96,4.48,4.77,4.21-3.96,1.62,1.72-10.1,9.5-1.62-1.72,4.48-4.21-4.48-4.76-4.48,4.21-1.62-1.72,10.1-9.51ZM101.55,33.73l2.15,1.24c1.3.75,2.31,1.13,3.05,1.13.73,0,1.3-.33,1.69-1,.3-.52.36-1.1.19-1.75-.18-.64-.96-1.37-2.37-2.18l-2.42-1.4-2.29,3.96ZM105.49,22.2l2.04,1.18-2.71,4.7,2.59,1.49c1.68.97,2.79,2.05,3.33,3.23.54,1.18.47,2.34-.19,3.49-.58,1-1.45,1.64-2.63,1.91-1.17.28-2.59-.07-4.26-1.04l-5.1-2.95,6.94-12.01ZM87.21,17.16l10.77,2.06-2.61,13.62-2.32-.44,2.24-11.7-6.14-1.18-1.3,6.78c-.3,1.58-.55,2.61-.75,3.1-.2.49-.57.87-1.1,1.16-.54.29-1.24.34-2.11.18-.54-.1-1.16-.25-1.85-.46l.37-1.92,1.02.2c.48.09.83.11,1.06.05.22-.06.39-.19.5-.39.11-.2.28-.89.5-2.07l1.72-8.98ZM76.77,23.9c-.82.43-2.07.86-3.75,1.27-.95.24-1.62.46-2.01.68-.38.21-.66.5-.85.85-.18.36-.26.73-.22,1.14.06.62.36,1.11.87,1.47.52.37,1.23.5,2.14.41.9-.09,1.69-.37,2.35-.84.66-.46,1.13-1.05,1.39-1.76.2-.55.24-1.34.14-2.36l-.07-.85ZM77.48,29.07c-.79.83-1.58,1.44-2.36,1.83-.77.39-1.62.63-2.55.72-1.52.16-2.73-.09-3.62-.74-.89-.65-1.4-1.56-1.52-2.7-.07-.67.02-1.31.27-1.9.25-.59.61-1.07,1.08-1.46.47-.39,1-.7,1.61-.94.45-.17,1.14-.36,2.05-.57,1.87-.42,3.24-.83,4.11-1.23-.02-.32-.04-.52-.05-.61-.1-.95-.39-1.59-.87-1.94-.65-.47-1.57-.64-2.76-.51-1.1.11-1.9.39-2.39.83-.49.44-.81,1.16-.96,2.17l-2.33-.08c.11-1,.37-1.83.79-2.48.42-.65,1.06-1.19,1.94-1.61.87-.41,1.91-.69,3.1-.81,1.18-.12,2.16-.08,2.93.12.77.2,1.35.49,1.74.88.39.39.69.89.9,1.52.12.39.23,1.11.34,2.14l.32,3.1c.22,2.17.41,3.53.57,4.1.15.57.41,1.1.74,1.61l-2.45.25c-.29-.47-.5-1.03-.63-1.68ZM53.97,30.2c.7,1.63,1.55,2.7,2.54,3.2,1,.5,1.97.55,2.92.14.96-.41,1.61-1.17,1.95-2.27.34-1.1.15-2.5-.58-4.21-.69-1.62-1.54-2.69-2.56-3.22-1.01-.52-1.98-.58-2.91-.18-.92.39-1.55,1.17-1.89,2.33-.34,1.17-.17,2.56.53,4.2ZM56.77,42.23l-7.53-17.65,1.97-.84.71,1.67c.19-.85.51-1.56.95-2.13.45-.57,1.09-1.04,1.92-1.4,1.09-.47,2.17-.59,3.25-.39,1.07.2,2.04.73,2.9,1.56.86.84,1.55,1.86,2.07,3.08.55,1.3.82,2.57.8,3.81-.02,1.24-.37,2.33-1.03,3.27-.65.93-1.48,1.61-2.46,2.03-.73.31-1.44.43-2.14.37-.71-.06-1.34-.24-1.9-.54l2.66,6.22-2.17.93ZM47.66,49.81l-1.61-1.48c.49-.23.87-.47,1.17-.72.4-.34.66-.68.79-1.02.13-.34.16-.69.12-1.06-.04-.28-.24-.88-.59-1.8-.05-.13-.12-.32-.21-.57l-13.05-7.17,1.92-1.63,7.4,4.21c.94.52,1.89,1.12,2.85,1.78-.48-.98-.91-1.98-1.29-3.01l-2.98-8.08,1.79-1.53,5.15,14.16c.55,1.53.89,2.61,1.02,3.25.18.86.18,1.6,0,2.23-.18.63-.56,1.18-1.13,1.67-.35.3-.8.55-1.34.78ZM25.06,48.47l6.54-9.16,1.59,1.13-2.59,3.62,9.7,6.93-1.37,1.92-9.7-6.93-2.59,3.62-1.59-1.13ZM27.71,58.38c.05.92-.09,2.23-.43,3.93-.19.96-.26,1.67-.23,2.1.03.44.17.81.41,1.13.24.32.55.54.94.68.58.2,1.16.15,1.7-.17.55-.32.98-.91,1.28-1.78.3-.85.37-1.68.23-2.49-.14-.79-.48-1.46-1.02-2-.42-.41-1.11-.79-2.09-1.12l-.81-.29ZM32.7,59.9c.42,1.07.63,2.04.66,2.91.03.86-.11,1.73-.42,2.61-.5,1.44-1.23,2.44-2.2,2.97-.97.54-2,.61-3.09.24-.64-.22-1.18-.57-1.61-1.05-.43-.48-.71-1.01-.87-1.59-.16-.59-.22-1.21-.17-1.86.04-.48.16-1.18.35-2.1.41-1.87.61-3.29.61-4.24-.3-.12-.49-.19-.57-.21-.9-.31-1.61-.32-2.13-.03-.7.4-1.24,1.16-1.63,2.28-.36,1.05-.45,1.89-.25,2.52.19.63.71,1.22,1.56,1.78l-1.06,2.07c-.86-.52-1.5-1.11-1.92-1.76-.41-.65-.63-1.46-.64-2.43-.01-.96.18-2.02.57-3.15.39-1.12.84-1.99,1.35-2.61.51-.61,1.02-1.02,1.53-1.21.51-.19,1.1-.25,1.76-.18.4.06,1.1.26,2.08.6l2.95,1.02c2.06.71,3.38,1.11,3.96,1.21.58.1,1.18.1,1.77,0l-.81,2.33c-.55.06-1.14.02-1.79-.14ZM16.42,83.37l.1-2.36,5.77.26.29-6.53-5.77-.26.11-2.35,13.86.62-.11,2.35-6.14-.27-.29,6.54,6.14.27-.11,2.36-13.86-.62Z"/>
  </g>
</svg>