<?xml version="1.0" encoding="UTF-8"?>
<svg id="Layer_1" xmlns="http://www.w3.org/2000/svg" version="1.1" viewBox="0 0 2834.65 2834.65">
  <!-- Generator: Adobe Illustrator 30.2.1, SVG Export Plug-In . SVG Version: 2.1.1 Build 1)  -->
  <defs>
    <style>
      .st0 {
        fill: #fff;
      }

      .st1 {
        fill: #07f;
      }
    </style>
  </defs>
  <path class="st1" d="M13.84,1366.6c0-635.07,0-952.7,197.36-1149.97C408.57,19.35,726.11,19.26,1361.18,19.26h112.28c635.07,0,952.7,0,1149.98,197.36,197.28,197.36,197.36,514.9,197.36,1149.97v112.28c0,635.07,0,952.7-197.36,1149.98-197.36,197.28-514.9,197.36-1149.98,197.36h-112.28c-635.07,0-952.7,0-1149.97-197.36S13.84,2113.95,13.84,1478.87v-112.28Z"/>
  <path class="st0" d="M1513.11,2065.97c-633.32,0-1017.52-439.38-1032.61-1169.54h320.78c10,536.39,253.94,763.67,441.04,810.42v-810.42h307.36v462.88c180.43-20,369.29-230.52,432.8-462.88h302.63c-48.51,285.7-254.12,496.22-399.38,583.06,145.44,70.26,379.29,254.03,469.55,586.48h-332.54c-70.17-222.19-242.28-394.29-472.88-417.71v417.71h-36.75Z"/>
</svg>